name ./resultDataOpenSim/trcMotMarkerGrf/sub10/grf-14-06.mot
datacolumns 19
datarows 15
range 0.48800000 0.54400000
endheader

                time	     ground_force_vx	     ground_force_vy	     ground_force_vz	     ground_force_px	     ground_force_py	     ground_force_pz	   l_ground_force_vx	   l_ground_force_vy	   l_ground_force_vz	   l_ground_force_px	   l_ground_force_py	   l_ground_force_pz	     ground_torque_x	     ground_torque_y	     ground_torque_z	   l_ground_torque_x	   l_ground_torque_y	   l_ground_torque_z	
          0.48800000	         83.58835347	        734.56373309	        -40.64868870	         -0.67695693	          0.00000000	         -0.01313712	          0.00000000	          0.00000000	          0.00000000	          0.00000000	          0.00000000	          0.00000000	          0.00000000	          3.47992184	          0.00000000	          0.00000000	          0.00000000	          0.00000000	
          0.49200000	         87.21105153	        750.29914482	        -39.86230037	         -0.67588342	          0.00000000	         -0.01377625	          0.00000000	          0.00000000	          0.00000000	          0.00000000	          0.00000000	          0.00000000	          0.00000000	          3.36375664	          0.00000000	          0.00000000	          0.00000000	          0.00000000	
          0.49600000	         91.36364689	        765.20176474	        -38.22714835	         -0.67479945	          0.00000000	         -0.01451371	          0.00000000	          0.00000000	          0.00000000	          0.00000000	          0.00000000	          0.00000000	          0.00000000	          3.31570935	          0.00000000	          0.00000000	          0.00000000	          0.00000000	
          0.50000000	         95.99620345	        779.47363450	        -35.79846667	         -0.67384530	          0.00000000	         -0.01533401	          0.00000000	          0.00000000	          0.00000000	          0.00000000	          0.00000000	          0.00000000	          0.00000000	          3.33691235	          0.00000000	          0.00000000	          0.00000000	          0.00000000	
          0.50400000	        101.09711180	        793.21454203	        -32.73458727	         -0.67310965	          0.00000000	         -0.01621235	          0.00000000	          0.00000000	          0.00000000	          0.00000000	          0.00000000	          0.00000000	          0.00000000	          3.42065445	          0.00000000	          0.00000000	          0.00000000	          0.00000000	
          0.50800000	        106.69520573	        806.20471140	        -29.27874717	         -0.67250030	          0.00000000	         -0.01711953	          0.00000000	          0.00000000	          0.00000000	          0.00000000	          0.00000000	          0.00000000	          0.00000000	          3.55330865	          0.00000000	          0.00000000	          0.00000000	          0.00000000	
          0.51200000	        112.86463689	        818.03979847	        -25.69251962	         -0.67189948	          0.00000000	         -0.01803380	          0.00000000	          0.00000000	          0.00000000	          0.00000000	          0.00000000	          0.00000000	          0.00000000	          3.71663788	          0.00000000	          0.00000000	          0.00000000	          0.00000000	
          0.51600000	        119.72118103	        828.41163973	        -22.20519022	         -0.67127798	          0.00000000	         -0.01893373	          0.00000000	          0.00000000	          0.00000000	          0.00000000	          0.00000000	          0.00000000	          0.00000000	          3.89077647	          0.00000000	          0.00000000	          0.00000000	          0.00000000	
          0.52000000	        127.38566473	        837.20890477	        -19.00872063	         -0.67071040	          0.00000000	         -0.01979550	          0.00000000	          0.00000000	          0.00000000	          0.00000000	          0.00000000	          0.00000000	          0.00000000	          4.05709506	          0.00000000	          0.00000000	          0.00000000	          0.00000000	
          0.52400000	        135.91652124	        844.39214959	        -16.25752093	         -0.67026497	          0.00000000	         -0.02059728	          0.00000000	          0.00000000	          0.00000000	          0.00000000	          0.00000000	          0.00000000	          0.00000000	          4.20053034	          0.00000000	          0.00000000	          0.00000000	          0.00000000	
          0.52800000	        145.25523191	        849.84685724	        -14.04123377	         -0.66993587	          0.00000000	         -0.02133231	          0.00000000	          0.00000000	          0.00000000	          0.00000000	          0.00000000	          0.00000000	          0.00000000	          4.31125171	          0.00000000	          0.00000000	          0.00000000	          0.00000000	
          0.53200000	        155.22689223	        853.37683992	        -12.35840144	         -0.66966952	          0.00000000	         -0.02200903	          0.00000000	          0.00000000	          0.00000000	          0.00000000	          0.00000000	          0.00000000	          0.00000000	          4.38552601	          0.00000000	          0.00000000	          0.00000000	          0.00000000	
          0.53600000	        165.58703684	        854.79628258	        -11.12331531	         -0.66944011	          0.00000000	         -0.02264252	          0.00000000	          0.00000000	          0.00000000	          0.00000000	          0.00000000	          0.00000000	          0.00000000	          4.42555642	          0.00000000	          0.00000000	          0.00000000	          0.00000000	
          0.54000000	        176.06979472	        853.95972447	        -10.20086115	         -0.66927777	          0.00000000	         -0.02324885	          0.00000000	          0.00000000	          0.00000000	          0.00000000	          0.00000000	          0.00000000	          0.00000000	          4.43820957	          0.00000000	          0.00000000	          0.00000000	          0.00000000	
          0.54400000	        186.42432734	        850.66220944	         -9.43779541	         -0.66920958	          0.00000000	         -0.02384436	          0.00000000	          0.00000000	          0.00000000	          0.00000000	          0.00000000	          0.00000000	          0.00000000	          4.43289209	          0.00000000	          0.00000000	          0.00000000	          0.00000000	
